<svg width="48" height="48" viewBox="0 0 48 48" fill="none" xmlns="http://www.w3.org/2000/svg">
<g id="vaadin:user-star" clip-path="url(#clip0_1_15)">
<path id="Vector" d="M26.76 41.01L21.93 36.42L17.43 32.16L23.43 31.29L30.18 30.33L31.05 28.62H30.99C30.3015 28.6203 29.6337 28.3838 29.099 27.95C28.5642 27.5163 28.1949 26.9118 28.053 26.238C28.05 24.387 30.45 24.987 32.34 21.867C32.58 21.807 40.8 -0.00299072 24 -0.00299072C7.20001 -0.00299072 15.42 21.807 15.42 21.807C17.31 24.807 19.74 24.357 19.71 26.157C19.68 27.957 17.49 28.557 15.42 28.767C12 29.157 9.00001 28.377 6.00001 34.047C4.20001 37.317 3.45001 47.997 3.45001 47.997H25.53V47.487L26.76 41.01ZM35.16 48H36.84L36 47.58L35.16 48Z" fill="black"/>
<path id="Vector_2" d="M36 44.19L43.41 48L42 39.93L48 34.23L39.72 33.06L36 25.71L32.28 33.06L24 34.23L30 39.93L28.59 48L36 44.19Z" fill="black"/>
</g>
<defs>
<clipPath id="clip0_1_15">
<rect width="48" height="48" fill="white"/>
</clipPath>
</defs>
</svg>
